<?xml version="1.0" encoding="utf-8"?>
<!-- Generator: Adobe Illustrator 17.0.0, SVG Export Plug-In . SVG Version: 6.00 Build 0)  -->
<!DOCTYPE svg PUBLIC "-//W3C//DTD SVG 1.1//EN" "http://www.w3.org/Graphics/SVG/1.1/DTD/svg11.dtd">
<svg version="1.1" id="Layer_1" xmlns="http://www.w3.org/2000/svg" xmlns:xlink="http://www.w3.org/1999/xlink" x="0px" y="0px"
	 width="120px" height="56px" viewBox="0 0 120 56" enable-background="new 0 0 120 56" xml:space="preserve">
<g>
	<path fill="#00A4E4" d="M60,32.72c-8.949,0-16.228-7.278-16.228-16.225C43.772,7.549,51.051,0.27,60,0.27
		s16.228,7.278,16.228,16.225C76.228,25.441,68.949,32.72,60,32.72z M60,1.176c-8.449,0-15.322,6.872-15.322,15.318
		S51.551,31.814,60,31.814s15.322-6.872,15.322-15.319S68.449,1.176,60,1.176z"/>
	<g>
		<g>
			<rect x="47.765" y="18.358" fill="#FFFFFF" width="2.719" height="2.718"/>
			<g>
				<rect x="51.39" y="16.545" fill="#FFFFFF" width="2.719" height="4.53"/>
			</g>
			<rect x="55.016" y="12.921" fill="#FFFFFF" width="2.719" height="8.155"/>
			<rect x="62.266" y="12.921" fill="#FFFFFF" width="2.719" height="8.155"/>
			<g>
				<rect x="65.891" y="16.545" fill="#FFFFFF" width="2.719" height="4.53"/>
			</g>
			<rect x="69.516" y="18.358" fill="#FFFFFF" width="2.719" height="2.718"/>
			<g>
				<rect x="58.641" y="8.289" fill="#FFFFFF" width="2.719" height="12.786"/>
			</g>
		</g>
	</g>
	<g>
		<path fill="#FFFFFF" d="M0,49.804l1.594-2.268c0.961,1.001,2.453,1.859,4.333,1.859c1.615,0,2.371-0.715,2.371-1.512
			c0-2.37-7.848-0.715-7.848-5.844c0-2.269,1.962-4.149,5.171-4.149c2.167,0,3.965,0.654,5.314,1.901L9.32,41.957
			c-1.104-1.022-2.575-1.492-3.965-1.492c-1.226,0-1.921,0.532-1.921,1.349c0,2.145,7.828,0.695,7.828,5.782
			c0,2.493-1.798,4.373-5.457,4.373C3.168,51.97,1.288,51.091,0,49.804z"/>
		<path fill="#FFFFFF" d="M12.511,46.78c0-2.8,1.962-5.169,5.212-5.169c3.27,0,5.232,2.37,5.232,5.169s-1.962,5.191-5.232,5.191
			C14.473,51.97,12.511,49.579,12.511,46.78z M20.257,46.78c0-1.533-0.899-2.861-2.534-2.861c-1.615,0-2.514,1.328-2.514,2.861
			c0,1.553,0.899,2.882,2.514,2.882C19.358,49.661,20.257,48.332,20.257,46.78z"/>
		<path fill="#FFFFFF" d="M31.563,51.725v-1.247c-0.674,0.736-1.86,1.492-3.475,1.492c-2.167,0-3.188-1.185-3.188-3.106v-7.009
			h2.596v5.987c0,1.369,0.715,1.819,1.819,1.819c1.002,0,1.799-0.552,2.248-1.125v-6.681h2.596v9.87H31.563z"/>
		<path fill="#FFFFFF" d="M43.4,51.725v-5.967c0-1.37-0.716-1.84-1.819-1.84c-1.022,0-1.798,0.572-2.248,1.144v6.662h-2.596v-9.87
			h2.596v1.267c0.633-0.736,1.86-1.512,3.454-1.512c2.187,0,3.229,1.226,3.229,3.147v6.968H43.4z"/>
		<path fill="#00A4E4" d="M55.359,51.725v-1.267c-0.777,0.981-1.84,1.512-3.045,1.512c-2.473,0-4.374-1.88-4.374-5.191
			c0-3.208,1.86-5.169,4.374-5.169c1.165,0,2.269,0.49,3.045,1.512v-5.028h2.617v13.63H55.359z M55.359,48.537v-3.494
			c-0.429-0.654-1.37-1.124-2.228-1.124c-1.492,0-2.514,1.165-2.514,2.861c0,1.717,1.022,2.882,2.514,2.882
			C53.989,49.661,54.929,49.191,55.359,48.537z"/>
		<path fill="#00A4E4" d="M60.614,51.725v-13.63h7.174c2.596,0,3.924,1.656,3.924,3.474c0,1.696-1.063,2.862-2.351,3.127
			c1.472,0.225,2.616,1.634,2.616,3.331c0,2.063-1.349,3.699-3.965,3.699H60.614z M68.749,42.08c0-0.838-0.612-1.431-1.594-1.431
			h-3.638v2.861h3.638C68.136,43.51,68.749,42.959,68.749,42.08z M69.015,47.617c0-0.858-0.613-1.553-1.737-1.553h-3.761v3.106
			h3.761C68.361,49.17,69.015,48.599,69.015,47.617z"/>
		<path fill="#FFFFFF" d="M74.108,51.725v-9.87h2.596v1.328c0.715-0.858,1.921-1.573,3.147-1.573v2.533
			c-0.184-0.041-0.409-0.061-0.715-0.061c-0.858,0-2.003,0.49-2.432,1.124v6.519H74.108z"/>
		<path fill="#FFFFFF" d="M81.221,39.239c0-0.857,0.695-1.533,1.533-1.533c0.858,0,1.553,0.675,1.553,1.533
			c0,0.858-0.695,1.554-1.553,1.554C81.916,40.793,81.221,40.097,81.221,39.239z M81.467,51.725v-9.87h2.596v9.87H81.467z"/>
		<path fill="#FFFFFF" d="M93.424,51.725v-1.267c-0.777,0.981-1.839,1.512-3.045,1.512c-2.473,0-4.374-1.88-4.374-5.191
			c0-3.208,1.86-5.169,4.374-5.169c1.165,0,2.268,0.49,3.045,1.512v-5.028h2.616v13.63H93.424z M93.424,48.537v-3.494
			c-0.429-0.654-1.369-1.124-2.228-1.124c-1.492,0-2.514,1.165-2.514,2.861c0,1.717,1.022,2.882,2.514,2.882
			C92.055,49.661,92.995,49.191,93.424,48.537z"/>
		<path fill="#FFFFFF" d="M98.414,54.259l1.165-1.86c0.797,0.858,1.86,1.206,3.086,1.206c1.247,0,2.739-0.532,2.739-2.534v-0.96
			c-0.777,0.98-1.839,1.533-3.066,1.533c-2.452,0-4.353-1.717-4.353-5.006c0-3.229,1.86-5.027,4.353-5.027
			c1.185,0,2.268,0.49,3.066,1.512v-1.267H108v9.216c0,3.739-2.902,4.659-5.335,4.659C100.99,55.73,99.661,55.342,98.414,54.259z
			 M105.404,48.231v-3.208c-0.45-0.634-1.39-1.103-2.228-1.103c-1.492,0-2.514,1.022-2.514,2.718c0,1.695,1.022,2.717,2.514,2.717
			C104.015,49.354,104.954,48.864,105.404,48.231z"/>
		<path fill="#FFFFFF" d="M109.944,46.78c0-2.861,2.126-5.169,5.109-5.169c2.964,0,4.946,2.207,4.946,5.414v0.613h-7.338
			c0.184,1.206,1.166,2.207,2.841,2.207c0.838,0,1.983-0.347,2.616-0.96l1.166,1.717c-0.981,0.899-2.535,1.369-4.068,1.369
			C112.213,51.97,109.944,49.947,109.944,46.78z M115.054,43.735c-1.614,0-2.309,1.124-2.412,2.105h4.865
			C117.425,44.9,116.771,43.735,115.054,43.735z"/>
	</g>
</g>
</svg>
