<?xml version="1.0" encoding="utf-8"?>
<!-- Generator: Adobe Illustrator 17.0.0, SVG Export Plug-In . SVG Version: 6.00 Build 0)  -->
<!DOCTYPE svg PUBLIC "-//W3C//DTD SVG 1.1//EN" "http://www.w3.org/Graphics/SVG/1.1/DTD/svg11.dtd">
<svg version="1.1" id="Layer_1" xmlns="http://www.w3.org/2000/svg" xmlns:xlink="http://www.w3.org/1999/xlink" x="0px" y="0px"
	 width="600px" height="400px" viewBox="0 0 600 400" enable-background="new 0 0 600 400" xml:space="preserve">
<g>
	<linearGradient id="SVGID_1_" gradientUnits="userSpaceOnUse" x1="300" y1="398.5" x2="300" y2="1.5">
		<stop  offset="0" style="stop-color:#35414A"/>
		<stop  offset="1" style="stop-color:#44505A"/>
	</linearGradient>
	<polygon fill="url(#SVGID_1_)" points="1.5,398.5 1.5,10.653 10.645,1.5 598.5,1.5 598.5,389.347 589.354,398.5 	"/>
	<path fill="#5D6B75" d="M598,2v387.14l-8.852,8.86H2V10.86L10.852,2H598 M599,1H10.438L1,10.446V399h588.562l9.438-9.446V1L599,1z"
		/>
	<path fill="#262D33" d="M599,1v388.554L589.562,399H1V10.446L10.438,1H599 M600,0h-1H10.438h-0.414L9.731,0.293L0.293,9.74
		L0,10.032v0.414V399v1h1h588.562h0.414l0.293-0.293l9.438-9.446l0.293-0.293v-0.414V1V0L600,0z"/>
</g>
</svg>
