<?xml version="1.0" encoding="utf-8"?>
<!-- Generator: Adobe Illustrator 17.0.0, SVG Export Plug-In . SVG Version: 6.00 Build 0)  -->
<!DOCTYPE svg PUBLIC "-//W3C//DTD SVG 1.1//EN" "http://www.w3.org/Graphics/SVG/1.1/DTD/svg11.dtd">
<svg version="1.1" id="Layer_1" xmlns="http://www.w3.org/2000/svg" xmlns:xlink="http://www.w3.org/1999/xlink" x="0px" y="0px"
	 width="162px" height="380px" viewBox="0 0 162 380" enable-background="new 0 0 162 380" xml:space="preserve">
<g>
	<polygon fill="#262D33" points="1.5,378.5 1.5,9.115 9.114,1.5 160.5,1.5 160.5,370.886 152.886,378.5 	"/>
	<path fill="#5D6B75" d="M160,2v368.678L152.679,378H2V9.322L9.321,2H160 M161,1H8.907L1,8.908V379h152.093l7.907-7.908V1L161,1z"/>
	<path fill="#262D33" d="M161,1v370.092L153.093,379H1V8.908L8.907,1H161 M162,0h-1H8.907H8.493L8.2,0.293L0.293,8.2L0,8.493v0.414
		V379v1h1h152.093h0.414l0.293-0.293l7.907-7.908l0.293-0.293v-0.414V1V0L162,0z"/>
</g>
</svg>
