<?xml version="1.0" encoding="utf-8"?>
<!-- Generator: Adobe Illustrator 17.0.0, SVG Export Plug-In . SVG Version: 6.00 Build 0)  -->
<!DOCTYPE svg PUBLIC "-//W3C//DTD SVG 1.1//EN" "http://www.w3.org/Graphics/SVG/1.1/DTD/svg11.dtd">
<svg version="1.1" id="Layer_1" xmlns="http://www.w3.org/2000/svg" xmlns:xlink="http://www.w3.org/1999/xlink" x="0px" y="0px"
	 width="408px" height="310px" viewBox="0 0 408 310" enable-background="new 0 0 408 310" xml:space="preserve">
<g>
	<g>
		<polygon fill="#262D33" points="1.5,308.5 1.5,9.115 9.114,1.5 406.5,1.5 406.5,300.886 398.886,308.5 		"/>
		<path fill="#5D6B75" d="M406,2v298.678L398.679,308H2V9.322L9.321,2H406 M407,1H8.907L1,8.908V309h398.093l7.907-7.908V1L407,1z"
			/>
		<path fill="#262D33" d="M407,1v300.092L399.093,309H1V8.908L8.907,1H407 M408,0h-1H8.907H8.493L8.2,0.293L0.293,8.2L0,8.493v0.414
			V309v1h1h398.093h0.414l0.293-0.293l7.907-7.908l0.293-0.293v-0.414V1V0L408,0z"/>
	</g>
	<g opacity="0.05">
		<defs>
			<polygon id="SVGID_1_" opacity="0.05" points="9.908,2.009 2.001,9.916 2.001,307.999 398.687,307.999 405.999,300.701 
				405.999,2.009 			"/>
		</defs>
		<clipPath id="SVGID_2_">
			<use xlink:href="#SVGID_1_"  overflow="visible"/>
		</clipPath>
		<g clip-path="url(#SVGID_2_)">
			<path fill="#00A4E4" d="M527.015,430.076c-94.213,94.213-247.48,94.224-341.673,0.031
				c-94.188-94.188-94.177-247.456,0.036-341.669s247.48-94.224,341.669-0.036C621.239,182.595,621.228,335.863,527.015,430.076z
				 M194.917,97.978c-88.948,88.948-88.963,233.658-0.034,322.588s233.644,88.919,322.592-0.029s88.959-233.663,0.029-322.592
				S283.865,9.029,194.917,97.978z"/>
			<g>
				<g>
					
						<rect x="255.378" y="387.438" transform="matrix(0.7071 -0.7071 0.7071 0.7071 -207.5425 314.2964)" fill="#FFFFFF" width="40.481" height="40.473"/>
					<g>
						
							<rect x="284.004" y="326.242" transform="matrix(0.7071 -0.7071 0.7071 0.7071 -165.4252 320.5657)" fill="#FFFFFF" width="40.481" height="67.454"/>
					</g>
					
						<rect x="303.091" y="242.015" transform="matrix(0.7071 -0.7071 0.7071 0.7071 -119.3565 317.2956)" fill="#FFFFFF" width="40.481" height="121.418"/>
					
						<rect x="379.423" y="165.683" transform="matrix(0.7071 -0.7071 0.7071 0.7071 -43.0246 348.9133)" fill="#FFFFFF" width="40.481" height="121.418"/>
					<g>
						
							<rect x="436.668" y="173.578" transform="matrix(0.7071 -0.7071 0.7071 0.7071 -12.7615 383.8011)" fill="#FFFFFF" width="40.481" height="67.454"/>
					</g>
					
						<rect x="484.373" y="158.442" transform="matrix(0.7071 -0.7071 0.7071 0.7071 21.4531 409.1494)" fill="#FFFFFF" width="40.481" height="40.473"/>
					<g>
						
							<rect x="316.875" y="144.986" transform="matrix(0.7071 -0.7071 0.7071 0.7071 -71.0913 308.7227)" fill="#FFFFFF" width="40.481" height="190.38"/>
					</g>
				</g>
			</g>
		</g>
	</g>
</g>
</svg>
